<svg viewBox="0 0 1496 400" xmlns="http://www.w3.org/2000/svg"><g><g><g><g><g><line x1="49.98400115966797" y1="336.68613663740723" x2="44.98400115966797" y2="336.68613663740723" style="visibility: inherit;" fill="rgb(0, 0, 0)" stroke="rgb(204, 204, 204)" stroke-width="1px"></line><line x1="49.98400115966797" y1="284.65555816066507" x2="44.98400115966797" y2="284.65555816066507" style="visibility: inherit;" fill="rgb(0, 0, 0)" stroke="rgb(204, 204, 204)" stroke-width="1px"></line><line x1="49.98400115966797" y1="232.6249796839228" x2="44.98400115966797" y2="232.6249796839228" style="visibility: inherit;" fill="rgb(0, 0, 0)" stroke="rgb(204, 204, 204)" stroke-width="1px"></line><line x1="49.98400115966797" y1="180.59440120718048" x2="44.98400115966797" y2="180.59440120718048" style="visibility: inherit;" fill="rgb(0, 0, 0)" stroke="rgb(204, 204, 204)" stroke-width="1px"></line><line x1="49.98400115966797" y1="128.56382273043826" x2="44.98400115966797" y2="128.56382273043826" style="visibility: inherit;" fill="rgb(0, 0, 0)" stroke="rgb(204, 204, 204)" stroke-width="1px"></line><line x1="49.98400115966797" y1="76.53324425369597" x2="44.98400115966797" y2="76.53324425369597" style="visibility: inherit;" fill="rgb(0, 0, 0)" stroke="rgb(204, 204, 204)" stroke-width="1px"></line><line x1="49.98400115966797" y1="24.5026657769538" x2="44.98400115966797" y2="24.5026657769538" style="visibility: inherit;" fill="rgb(0, 0, 0)" stroke="rgb(204, 204, 204)" stroke-width="1px"></line></g><g transform="translate(39.98400115966797, 0)"><text style="text-anchor: end; visibility: inherit; font-family: Roboto, sans-serif; font-size: 12px; font-weight: 200;" x="0" y="336.68613663740723" dx="0em" dy="0.3em" fill="rgb(255, 255, 255)" stroke="none" stroke-width="1px">0.65</text><text style="text-anchor: end; visibility: inherit; font-family: Roboto, sans-serif; font-size: 12px; font-weight: 200;" x="0" y="284.65555816066507" dx="0em" dy="0.3em" fill="rgb(255, 255, 255)" stroke="none" stroke-width="1px">0.7</text><text style="text-anchor: end; visibility: inherit; font-family: Roboto, sans-serif; font-size: 12px; font-weight: 200;" x="0" y="232.6249796839228" dx="0em" dy="0.3em" fill="rgb(255, 255, 255)" stroke="none" stroke-width="1px">0.75</text><text style="text-anchor: end; visibility: inherit; font-family: Roboto, sans-serif; font-size: 12px; font-weight: 200;" x="0" y="180.59440120718048" dx="0em" dy="0.3em" fill="rgb(255, 255, 255)" stroke="none" stroke-width="1px">0.8</text><text style="text-anchor: end; visibility: inherit; font-family: Roboto, sans-serif; font-size: 12px; font-weight: 200;" x="0" y="128.56382273043826" dx="0em" dy="0.3em" fill="rgb(255, 255, 255)" stroke="none" stroke-width="1px">0.85</text><text style="text-anchor: end; visibility: inherit; font-family: Roboto, sans-serif; font-size: 12px; font-weight: 200;" x="0" y="76.53324425369597" dx="0em" dy="0.3em" fill="rgb(255, 255, 255)" stroke="none" stroke-width="1px">0.9</text><text style="text-anchor: end; visibility: inherit; font-family: Roboto, sans-serif; font-size: 12px; font-weight: 200;" x="0" y="24.5026657769538" dx="0em" dy="0.3em" fill="rgb(255, 255, 255)" stroke="none" stroke-width="1px">0.95</text></g><line x1="49.98400115966797" y1="0" x2="49.98400115966797" y2="377.6199998855591" fill="rgb(0, 0, 0)" stroke="rgb(204, 204, 204)" stroke-width="1px"></line></g></g><g transform="translate(49, 0)" clip-path="url(#clip_0)"><clipPath id="clip_0"><rect width="1446" height="377"></rect></clipPath><g><g><g><line x1="29.073677147794207" y1="0" x2="29.073677147794207" y2="377.6199998855591" fill="rgb(0, 0, 0)" stroke="rgb(189, 189, 189)" stroke-width="1px" opacity="0.25"></line><line x1="188.46576216254556" y1="0" x2="188.46576216254556" y2="377.6199998855591" fill="rgb(0, 0, 0)" stroke="rgb(189, 189, 189)" stroke-width="1px" opacity="0.25"></line><line x1="347.8578471772969" y1="0" x2="347.8578471772969" y2="377.6199998855591" fill="rgb(0, 0, 0)" stroke="rgb(189, 189, 189)" stroke-width="1px" opacity="0.25"></line><line x1="507.2499321920482" y1="0" x2="507.2499321920482" y2="377.6199998855591" fill="rgb(0, 0, 0)" stroke="rgb(189, 189, 189)" stroke-width="1px" opacity="0.25"></line><line x1="666.6420172067997" y1="0" x2="666.6420172067997" y2="377.6199998855591" fill="rgb(0, 0, 0)" stroke="rgb(189, 189, 189)" stroke-width="1px" opacity="0.25"></line><line x1="826.0341022215509" y1="0" x2="826.0341022215509" y2="377.6199998855591" fill="rgb(0, 0, 0)" stroke="rgb(189, 189, 189)" stroke-width="1px" opacity="0.25"></line><line x1="985.4261872363023" y1="0" x2="985.4261872363023" y2="377.6199998855591" fill="rgb(0, 0, 0)" stroke="rgb(189, 189, 189)" stroke-width="1px" opacity="0.25"></line><line x1="1144.8182722510537" y1="0" x2="1144.8182722510537" y2="377.6199998855591" fill="rgb(0, 0, 0)" stroke="rgb(189, 189, 189)" stroke-width="1px" opacity="0.25"></line><line x1="1304.210357265805" y1="0" x2="1304.210357265805" y2="377.6199998855591" fill="rgb(0, 0, 0)" stroke="rgb(189, 189, 189)" stroke-width="1px" opacity="0.25"></line></g><g><line x1="0" y1="336.68613663740723" x2="1446.015998840332" y2="336.68613663740723" fill="rgb(0, 0, 0)" stroke="rgb(189, 189, 189)" stroke-width="1px" opacity="0.25"></line><line x1="0" y1="284.65555816066507" x2="1446.015998840332" y2="284.65555816066507" fill="rgb(0, 0, 0)" stroke="rgb(189, 189, 189)" stroke-width="1px" opacity="0.25"></line><line x1="0" y1="232.6249796839228" x2="1446.015998840332" y2="232.6249796839228" fill="rgb(0, 0, 0)" stroke="rgb(189, 189, 189)" stroke-width="1px" opacity="0.25"></line><line x1="0" y1="180.59440120718048" x2="1446.015998840332" y2="180.59440120718048" fill="rgb(0, 0, 0)" stroke="rgb(189, 189, 189)" stroke-width="1px" opacity="0.25"></line><line x1="0" y1="128.56382273043826" x2="1446.015998840332" y2="128.56382273043826" fill="rgb(0, 0, 0)" stroke="rgb(189, 189, 189)" stroke-width="1px" opacity="0.25"></line><line x1="0" y1="76.53324425369597" x2="1446.015998840332" y2="76.53324425369597" fill="rgb(0, 0, 0)" stroke="rgb(189, 189, 189)" stroke-width="1px" opacity="0.25"></line><line x1="0" y1="24.5026657769538" x2="1446.015998840332" y2="24.5026657769538" fill="rgb(0, 0, 0)" stroke="rgb(189, 189, 189)" stroke-width="1px" opacity="0.25"></line></g></g></g><g><g><line x1="0" y1="1013.0836568350566" x2="1446.015998840332" y2="1013.0836568350566" fill="rgb(0, 0, 0)" stroke="rgb(153, 153, 153)" stroke-width="1.5px"></line></g></g><g><g><line x1="347.8578471772969" y1="0" x2="347.8578471772969" y2="377.6199998855591" fill="rgb(0, 0, 0)" stroke="rgb(153, 153, 153)" stroke-width="1.5px"></line></g></g><g><g><g><g><g><path style="fill: none;" stroke="rgb(0, 119, 187)" stroke-width="2px" d="M347.8578471772969,377.7469607865548L427.5538896846726,243.23978502603632L507.2499321920482,180.41789649239712L586.9459746994239,145.26000758166978L666.6420172067997,123.2934390370701L746.3380597141753,107.4307190627016L826.0341022215509,96.74097874865784L905.7301447289267,87.38203740528839L985.4261872363023,79.87977737968116L1065.122229743678,74.10097294652083" fill="none"></path></g><g><path style="fill: none;" stroke="rgb(187, 187, 187)" stroke-width="2px" d="M347.8578471772969,331.50475538561903L427.5538896846726,219.8964612430745L507.2499321920482,166.56205967315466L586.9459746994239,137.00460751756262L666.6420172067997,117.8945846004595L746.3380597141753,104.22430291497558L826.0341022215509,93.96190399816115L905.7301447289267,86.85371751787441L985.4261872363023,81.12421191895328L1065.122229743678,75.86536240706624" fill="none"></path></g><g><path style="fill: none;" stroke="rgb(238, 51, 119)" stroke-width="2px" d="M347.8578471772969,279.4091620072871L427.5538896846726,189.49382291893656L507.2499321920482,148.35271381315695L586.9459746994239,123.6565618517985L666.6420172067997,106.72523353215011L746.3380597141753,95.30359190259416L826.0341022215509,87.22237008359107L905.7301447289267,80.31589999674796L985.4261872363023,74.48626110129386L1065.122229743678,69.50822535060367" fill="none"></path></g><g><path style="fill: none;" stroke="rgb(204, 51, 17)" stroke-width="2px" d="M347.8578471772969,255.4100294013607L427.5538896846726,180.45348286557933L507.2499321920482,144.85390557653787L586.9459746994239,123.42945582220405L666.6420172067997,108.33616743827321L746.3380597141753,98.16699187984548L826.0341022215509,89.96016216064393L905.7301447289267,83.7832322952148L985.4261872363023,78.43595192827676L1065.122229743678,74.14552493903776" fill="none"></path></g><g><path style="fill: none;" stroke="rgb(255, 112, 67)" stroke-width="2px" d="M347.8578471772969,221.9803866996719L427.5538896846726,160.8309007436578L347.8578471772969,200.20363264011095L427.5538896846726,171.40559579470522L507.2499321920482,145.35804180664564L586.9459746994239,126.16822855312215L666.6420172067997,111.80013996344506L746.3380597141753,101.6506773763589L826.0341022215509,93.48995679009816L905.7301447289267,86.68346773216378L985.4261872363023,80.6851694225156L1065.122229743678,75.92690437857077" fill="none"></path></g></g></g></g><g opacity="0.2"><g><g><g><path style="fill: none;" stroke="rgb(0, 119, 187)" stroke-width="2px" d="M347.8578471772969,377.7469607865548L427.5538896846726,162.53547956972514L507.2499321920482,120.10888350010345L586.9459746994239,103.91433022265444L666.6420172067997,94.6138871452409L746.3380597141753,85.48686675895914L826.0341022215509,81.45447906373012L905.7301447289267,73.73661108081863L985.4261872363023,68.81540108089771L1065.122229743678,65.52012184826175" fill="none"></path></g><g><path style="fill: none;" stroke="rgb(187, 187, 187)" stroke-width="2px" d="M347.8578471772969,331.50475538561886L427.5538896846726,152.93148475754802L507.2499321920482,115.36103416603137L586.9459746994239,102.24504378258649L666.6420172067997,92.94453867988999L746.3380597141753,85.3133820425444L826.0341022215509,79.28650934873383L905.7301447289267,76.48991339102625L985.4261872363023,72.67430405971199L1065.122229743678,68.05658376927165" fill="none"></path></g><g><path style="fill: none;" stroke="rgb(238, 51, 119)" stroke-width="2px" d="M347.8578471772969,279.4091620072871L427.5538896846726,135.54461946592642L507.2499321920482,108.85724907160834L586.9459746994239,94.6138871452409L666.6420172067997,84.6196912780172L746.3380597141753,79.50334973793152L826.0341022215509,75.66609358286726L905.7301447289267,70.24620030801796L985.4261872363023,65.88867607955831L1065.122229743678,62.11642242102698" fill="none"></path></g><g><path style="fill: none;" stroke="rgb(204, 51, 17)" stroke-width="2px" d="M347.8578471772969,255.4100294013607L427.5538896846726,135.47955494411056L507.2499321920482,110.6783113790581L586.9459746994239,98.23430291110746L666.6420172067997,88.63037012421327L746.3380597141753,84.09936117933889L826.0341022215509,78.22426435291008L905.7301447289267,74.77720925289236L985.4261872363023,70.54975204278155L1065.122229743678,67.774740883541" fill="none"></path></g><g><path style="fill: none;" stroke="rgb(255, 112, 67)" stroke-width="2px" d="M347.8578471772969,221.9803866996719L427.5538896846726,124.1412091700495L347.8578471772969,238.00145526070614L427.5538896846726,137.53910446450797L507.2499321920482,111.35035531983529L586.9459746994239,99.62180849072776L666.6420172067997,91.25354339078906L746.3380597141753,86.85266348954646L826.0341022215509,81.45447906373012L905.7301447289267,76.57662473659215L985.4261872363023,71.74212608223708L1065.122229743678,68.81540108089771" fill="none"></path></g></g></g></g></g></g><g transform="translate(49, 377)" clip-path="url(#clip_1)"><clipPath id="clip_1"><rect width="1446" height="22"></rect></clipPath><g><g><line x1="29.073677147794207" y1="0" x2="29.073677147794207" y2="5" style="visibility: inherit;" fill="rgb(0, 0, 0)" stroke="rgb(204, 204, 204)" stroke-width="1px"></line><line x1="188.46576216254556" y1="0" x2="188.46576216254556" y2="5" style="visibility: inherit;" fill="rgb(0, 0, 0)" stroke="rgb(204, 204, 204)" stroke-width="1px"></line><line x1="347.8578471772969" y1="0" x2="347.8578471772969" y2="5" style="visibility: inherit;" fill="rgb(0, 0, 0)" stroke="rgb(204, 204, 204)" stroke-width="1px"></line><line x1="507.2499321920482" y1="0" x2="507.2499321920482" y2="5" style="visibility: inherit;" fill="rgb(0, 0, 0)" stroke="rgb(204, 204, 204)" stroke-width="1px"></line><line x1="666.6420172067997" y1="0" x2="666.6420172067997" y2="5" style="visibility: inherit;" fill="rgb(0, 0, 0)" stroke="rgb(204, 204, 204)" stroke-width="1px"></line><line x1="826.0341022215509" y1="0" x2="826.0341022215509" y2="5" style="visibility: inherit;" fill="rgb(0, 0, 0)" stroke="rgb(204, 204, 204)" stroke-width="1px"></line><line x1="985.4261872363023" y1="0" x2="985.4261872363023" y2="5" style="visibility: inherit;" fill="rgb(0, 0, 0)" stroke="rgb(204, 204, 204)" stroke-width="1px"></line><line x1="1144.8182722510537" y1="0" x2="1144.8182722510537" y2="5" style="visibility: inherit;" fill="rgb(0, 0, 0)" stroke="rgb(204, 204, 204)" stroke-width="1px"></line><line x1="1304.210357265805" y1="0" x2="1304.210357265805" y2="5" style="visibility: inherit;" fill="rgb(0, 0, 0)" stroke="rgb(204, 204, 204)" stroke-width="1px"></line></g><g transform="translate(0, 8)"><text style="text-anchor: middle; visibility: inherit; font-family: Roboto, sans-serif; font-size: 12px; font-weight: 200;" x="29.073677147794207" y="0" dx="0em" dy="0.95em" fill="rgb(255, 255, 255)" stroke="none" stroke-width="1px">-4</text><text style="text-anchor: middle; visibility: inherit; font-family: Roboto, sans-serif; font-size: 12px; font-weight: 200;" x="188.46576216254556" y="0" dx="0em" dy="0.95em" fill="rgb(255, 255, 255)" stroke="none" stroke-width="1px">-2</text><text style="text-anchor: middle; visibility: inherit; font-family: Roboto, sans-serif; font-size: 12px; font-weight: 200;" x="347.8578471772969" y="0" dx="0em" dy="0.95em" fill="rgb(255, 255, 255)" stroke="none" stroke-width="1px">0</text><text style="text-anchor: middle; visibility: inherit; font-family: Roboto, sans-serif; font-size: 12px; font-weight: 200;" x="507.2499321920482" y="0" dx="0em" dy="0.95em" fill="rgb(255, 255, 255)" stroke="none" stroke-width="1px">2</text><text style="text-anchor: middle; visibility: inherit; font-family: Roboto, sans-serif; font-size: 12px; font-weight: 200;" x="666.6420172067997" y="0" dx="0em" dy="0.95em" fill="rgb(255, 255, 255)" stroke="none" stroke-width="1px">4</text><text style="text-anchor: middle; visibility: inherit; font-family: Roboto, sans-serif; font-size: 12px; font-weight: 200;" x="826.0341022215509" y="0" dx="0em" dy="0.95em" fill="rgb(255, 255, 255)" stroke="none" stroke-width="1px">6</text><text style="text-anchor: middle; visibility: inherit; font-family: Roboto, sans-serif; font-size: 12px; font-weight: 200;" x="985.4261872363023" y="0" dx="0em" dy="0.95em" fill="rgb(255, 255, 255)" stroke="none" stroke-width="1px">8</text><text style="text-anchor: middle; visibility: inherit; font-family: Roboto, sans-serif; font-size: 12px; font-weight: 200;" x="1144.8182722510537" y="0" dx="0em" dy="0.95em" fill="rgb(255, 255, 255)" stroke="none" stroke-width="1px">10</text><text style="text-anchor: middle; visibility: inherit; font-family: Roboto, sans-serif; font-size: 12px; font-weight: 200;" x="1304.210357265805" y="0" dx="0em" dy="0.95em" fill="rgb(255, 255, 255)" stroke="none" stroke-width="1px">12</text></g><line x1="0" y1="0" x2="1446.015998840332" y2="0" fill="rgb(0, 0, 0)" stroke="rgb(204, 204, 204)" stroke-width="1px"></line></g></g></g></g></svg>